<svg xmlns="http://www.w3.org/2000/svg" width="22.608" height="22.609" viewBox="0 0 22.608 22.609">
    <defs>
        <filter id="sfk1xu7wga">
            <feOffset dy="2"/>
            <feGaussianBlur stdDeviation="2.5" result="blur"/>
            <feFlood flood-opacity=".686" result="color"/>
            <feComposite operator="out" in="SourceGraphic" in2="blur"/>
            <feComposite operator="in" in="color"/>
            <feComposite operator="in" in2="SourceGraphic"/>
        </filter>
    </defs>
    <g data-type="innerShadowGroup" data-name="Group 221">
        <path data-name="Path 3671" d="M13.3 2C4.576 2.067 2 7.064 2 13.3s2.658 11.312 11.3 11.3 11.3-5.064 11.3-11.3S22.032 1.933 13.3 2zM9.517 16.435a.851.851 0 0 1-.791.554.68.68 0 0 1-.294-.057 4.146 4.146 0 0 1-2.17-1.876A4.494 4.494 0 0 1 7.81 9.133l2.645-1.639a4.081 4.081 0 0 1 5.754 1.492 4.494 4.494 0 0 1-1.549 5.923l-.294.215a.85.85 0 0 1-.995-1.379l.35-.249a2.8 2.8 0 0 0 1.006-3.685 2.422 2.422 0 0 0-1.492-1.176 2.353 2.353 0 0 0-1.876.294L8.692 10.58a2.788 2.788 0 0 0-.961 3.663 2.452 2.452 0 0 0 1.277 1.107.847.847 0 0 1 .509 1.085zm9.348.995-2.645 1.639a4.08 4.08 0 0 1-5.742-1.5 4.494 4.494 0 0 1 1.549-5.923l.294-.215a.85.85 0 0 1 .995 1.379l-.35.249a2.8 2.8 0 0 0-1.006 3.685 2.422 2.422 0 0 0 1.492 1.176 2.353 2.353 0 0 0 1.876-.294l2.645-1.639a2.788 2.788 0 0 0 .961-3.663 2.452 2.452 0 0 0-1.277-1.108.844.844 0 1 1 .588-1.583 4.146 4.146 0 0 1 2.17 1.876 4.5 4.5 0 0 1-1.549 5.923z" transform="translate(-2 -1.999)" style="fill:#60e0ff"/>
        <g style="filter:url(#sfk1xu7wga)">
            <path data-name="Path 3671" d="M13.3 2C4.576 2.067 2 7.064 2 13.3s2.658 11.312 11.3 11.3 11.3-5.064 11.3-11.3S22.032 1.933 13.3 2zM9.517 16.435a.851.851 0 0 1-.791.554.68.68 0 0 1-.294-.057 4.146 4.146 0 0 1-2.17-1.876A4.494 4.494 0 0 1 7.81 9.133l2.645-1.639a4.081 4.081 0 0 1 5.754 1.492 4.494 4.494 0 0 1-1.549 5.923l-.294.215a.85.85 0 0 1-.995-1.379l.35-.249a2.8 2.8 0 0 0 1.006-3.685 2.422 2.422 0 0 0-1.492-1.176 2.353 2.353 0 0 0-1.876.294L8.692 10.58a2.788 2.788 0 0 0-.961 3.663 2.452 2.452 0 0 0 1.277 1.107.847.847 0 0 1 .509 1.085zm9.348.995-2.645 1.639a4.08 4.08 0 0 1-5.742-1.5 4.494 4.494 0 0 1 1.549-5.923l.294-.215a.85.85 0 0 1 .995 1.379l-.35.249a2.8 2.8 0 0 0-1.006 3.685 2.422 2.422 0 0 0 1.492 1.176 2.353 2.353 0 0 0 1.876-.294l2.645-1.639a2.788 2.788 0 0 0 .961-3.663 2.452 2.452 0 0 0-1.277-1.108.844.844 0 1 1 .588-1.583 4.146 4.146 0 0 1 2.17 1.876 4.5 4.5 0 0 1-1.549 5.923z" transform="translate(-2 -1.999)" style="fill:#fff"/>
        </g>
    </g>
</svg>
