<svg xmlns="http://www.w3.org/2000/svg" width="19.508" height="19.507" viewBox="0 0 19.508 19.507">
    <g data-name="Group 224">
        <path data-name="Path 3674" d="M7.426 12.268a10.271 10.271 0 0 1 0-4.691 5.778 5.778 0 0 1 4.306-4.306 10.272 10.272 0 0 1 4.691 0 5.778 5.778 0 0 1 4.306 4.306 10.271 10.271 0 0 1 0 4.691 5.778 5.778 0 0 1-4.306 4.306 10.271 10.271 0 0 1-4.691 0m-4.306-4.306a5.778 5.778 0 0 0 4.306 4.306m-4.306-4.306a10.271 10.271 0 0 1-.253-2.957q-.125.025-.25.054a4.952 4.952 0 0 0-3.69 3.69 8.8 8.8 0 0 0 0 4.022 4.952 4.952 0 0 0 3.69 3.69 8.809 8.809 0 0 0 4.021 0 4.952 4.952 0 0 0 3.69-3.69c.02-.083.038-.167.055-.25a10.27 10.27 0 0 1-2.957-.253" style="fill:none;stroke:#fff;stroke-width:1.5px" transform="translate(-2.247 -2.246)"/>
    </g>
</svg>
