<svg xmlns="http://www.w3.org/2000/svg" width="17.995" height="18">
    <path data-name="Path 2037" d="M1320.97 381.344a12.984 12.984 0 0 0-5.94 0 7.647 7.647 0 0 0-5.69 5.686 13.238 13.238 0 0 0 0 5.94 7.647 7.647 0 0 0 5.69 5.686 12.984 12.984 0 0 0 5.94 0 7.647 7.647 0 0 0 5.69-5.686 13.238 13.238 0 0 0 0-5.94 7.647 7.647 0 0 0-5.69-5.686zm-6.42 5.784a.577.577 0 0 1 .58-.574h5.74a.575.575 0 1 1 0 1.149h-2.3v5.169a.57.57 0 1 1-1.14 0V387.7h-2.3a.578.578 0 0 1-.58-.572z" transform="translate(-1309.002 -381)" style="fill:#434d57;fill-rule:evenodd"/>
</svg>
