<svg xmlns="http://www.w3.org/2000/svg" width="25.049" height="25.057">
    <path data-name="Path 2426" d="M1029.661 775.577a18.07 18.07 0 0 1-8.268 0 10.645 10.645 0 0 1-7.92-7.915 18.423 18.423 0 0 1 0-8.268 10.645 10.645 0 0 1 7.92-7.915 18.074 18.074 0 0 1 8.268 0 10.645 10.645 0 0 1 7.921 7.915 18.427 18.427 0 0 1 0 8.268 10.645 10.645 0 0 1-7.921 7.915zm-.209-10.125a.836.836 0 0 0-1.183-1.182l-1.907 1.906v-7.312a.835.835 0 1 0-1.67 0v7.312l-1.907-1.906a.838.838 0 0 0-1.183 0 .847.847 0 0 0 0 1.182l3.341 3.331a.82.82 0 0 0 1.169 0z" transform="translate(-1013.003 -751)" style="fill:#5fd050;fill-rule:evenodd"/>
</svg>
