<svg xmlns="http://www.w3.org/2000/svg" width="20.5" height="19.5">
    <path data-name="Path 3413" d="m420.885 319.151.728-.18zm0-6.3-.728-.181zm18.23 0 .728-.181zm0 6.3.728.181zm-6 5.508-.163-.732zm-6.232 0 .163-.732zm0-17.318-.162-.732zm6.232 0-.163.732zm-6.685 17.217-.163.733zm7.138 0 .163.733zm0-17.116.163-.733zm-7.138 0 .162.732zm-3.693 2.448a.75.75 0 0 0-.872 1.221zm5.344 4.74-.436.61zm3.836 0 .436.61zm6.216-3.519a.75.75 0 0 0-.872-1.221zm-11.541-2.937.454-.1-.325-1.464-.454.1zm6.36-.1.454.1.325-1.465-.454-.1zm.454 15.753-.454.1.325 1.464.454-.1zm-6.36.1-.454-.1-.325 1.465.454.1zm-5.434-4.956a12.34 12.34 0 0 1 0-5.942l-1.456-.361a13.834 13.834 0 0 0 0 6.664zm16.774-5.941a12.335 12.335 0 0 1 0 5.941l1.456.361a13.834 13.834 0 0 0 0-6.664zm-5.434 10.9a13.65 13.65 0 0 1-5.906 0l-.325 1.464a15.135 15.135 0 0 0 6.556 0zm-5.906-15.854a13.65 13.65 0 0 1 5.906 0l.325-1.464a15.135 15.135 0 0 0-6.556 0zm-.454 15.753a6.6 6.6 0 0 1-4.98-4.855l-1.456.361a8.107 8.107 0 0 0 6.111 5.959zm7.139 1.465a8.107 8.107 0 0 0 6.111-5.959l-1.456-.361a6.6 6.6 0 0 1-4.98 4.855zm-.325-17.117a6.6 6.6 0 0 1 4.98 4.856l1.456-.362a8.107 8.107 0 0 0-6.111-5.959zm-7.139-1.465a8.107 8.107 0 0 0-6.111 5.959l1.456.361a6.6 6.6 0 0 1 4.98-4.855zm-4.4 4.4 5.78 4.129.872-1.22-5.78-4.13zm10.488 4.129 5.78-4.129-.872-1.221-5.78 4.13zm-4.708 0a4.049 4.049 0 0 0 4.708 0l-.872-1.22a2.55 2.55 0 0 1-2.964 0z" transform="translate(-419.75 -306.25)" style="fill:#acb6c3"/>
</svg>
