<svg xmlns="http://www.w3.org/2000/svg" width="22.776" height="22.783">
    <defs>
        <filter id="a">
            <feOffset dy="2"/>
            <feGaussianBlur stdDeviation="2.5" result="blur"/>
            <feFlood flood-opacity=".686" result="color"/>
            <feComposite operator="out" in="SourceGraphic" in2="blur"/>
            <feComposite operator="in" in="color"/>
            <feComposite operator="in" in2="SourceGraphic"/>
        </filter>
    </defs>
    <g data-type="innerShadowGroup">
        <path data-name="Path 2954" d="M1176.15 233.435a16.433 16.433 0 0 0-7.518 0 9.679 9.679 0 0 0-7.2 7.2 16.753 16.753 0 0 0 0 7.518 9.679 9.679 0 0 0 7.2 7.2 16.433 16.433 0 0 0 7.518 0 9.679 9.679 0 0 0 7.2-7.2 16.753 16.753 0 0 0 0-7.518 9.679 9.679 0 0 0-7.2-7.2zm-3.759 5.35a.76.76 0 0 1 .759.759v1.8a.759.759 0 1 1-1.519 0v-1.8a.76.76 0 0 1 .76-.758zm4.86 2.8a.774.774 0 0 1-.278 1.038l-1.57.9a.762.762 0 0 1-1.038-.277.774.774 0 0 1 .278-1.038l1.569-.9a.763.763 0 0 1 1.039.28zm-9.72 0a.763.763 0 0 1 1.038-.277l1.57.9a.775.775 0 0 1 .278 1.038.763.763 0 0 1-1.038.277l-1.569-.9a.775.775 0 0 1-.28-1.035zm2.886 3.946a.775.775 0 0 1-.278 1.038l-1.57.9a.763.763 0 0 1-1.038-.277.775.775 0 0 1 .279-1.038l1.569-.9a.763.763 0 0 1 1.037.28zm3.949 0a.762.762 0 0 1 1.038-.277l1.57.9a.774.774 0 0 1 .278 1.038.763.763 0 0 1-1.038.277l-1.569-.9a.774.774 0 0 1-.28-1.035zm-1.975 1.144a.76.76 0 0 1 .759.759v1.8a.759.759 0 1 1-1.519 0v-1.8a.76.76 0 0 1 .76-.756z" transform="translate(-1161.002 -233)" style="fill-rule:evenodd;fill:#3f6ade"/>
        <g style="filter:url(#a)">
            <path data-name="Path 2954" d="M1176.15 233.435a16.433 16.433 0 0 0-7.518 0 9.679 9.679 0 0 0-7.2 7.2 16.753 16.753 0 0 0 0 7.518 9.679 9.679 0 0 0 7.2 7.2 16.433 16.433 0 0 0 7.518 0 9.679 9.679 0 0 0 7.2-7.2 16.753 16.753 0 0 0 0-7.518 9.679 9.679 0 0 0-7.2-7.2zm-3.759 5.35a.76.76 0 0 1 .759.759v1.8a.759.759 0 1 1-1.519 0v-1.8a.76.76 0 0 1 .76-.758zm4.86 2.8a.774.774 0 0 1-.278 1.038l-1.57.9a.762.762 0 0 1-1.038-.277.774.774 0 0 1 .278-1.038l1.569-.9a.763.763 0 0 1 1.039.28zm-9.72 0a.763.763 0 0 1 1.038-.277l1.57.9a.775.775 0 0 1 .278 1.038.763.763 0 0 1-1.038.277l-1.569-.9a.775.775 0 0 1-.28-1.035zm2.886 3.946a.775.775 0 0 1-.278 1.038l-1.57.9a.763.763 0 0 1-1.038-.277.775.775 0 0 1 .279-1.038l1.569-.9a.763.763 0 0 1 1.037.28zm3.949 0a.762.762 0 0 1 1.038-.277l1.57.9a.774.774 0 0 1 .278 1.038.763.763 0 0 1-1.038.277l-1.569-.9a.774.774 0 0 1-.28-1.035zm-1.975 1.144a.76.76 0 0 1 .759.759v1.8a.759.759 0 1 1-1.519 0v-1.8a.76.76 0 0 1 .76-.756z" transform="translate(-1161 -233)" style="fill:#fff;fill-rule:evenodd"/>
        </g>
    </g>
</svg>
