<svg xmlns="http://www.w3.org/2000/svg" width="17" height="17" viewBox="0 0 17 17">
    <path data-name="Path 1980" d="M274.587 312.2a6.562 6.562 0 0 1 4.889-4.889 11.665 11.665 0 0 1 5.327 0 6.562 6.562 0 0 1 4.889 4.889 11.665 11.665 0 0 1 0 5.327 6.562 6.562 0 0 1-4.889 4.889 11.665 11.665 0 0 1-5.327 0 6.548 6.548 0 0 1-1.673-.643 2.4 2.4 0 1 1-2.574-2.574 6.545 6.545 0 0 1-.643-1.673 11.665 11.665 0 0 1 .001-5.326zm3.609 1.22a.577.577 0 0 1 .577-.577h2.886a.577.577 0 0 1 0 1.154h-2.886a.576.576 0 0 1-.573-.58zm1.538 2.309a.577.577 0 0 0 0 1.154h4.81a.577.577 0 1 0 0-1.154z" transform="translate(-273 -307)" style="fill:#6f7f91;fill-rule:evenodd"/>
</svg>
