<svg xmlns="http://www.w3.org/2000/svg" width="17" height="17" viewBox="0 0 17 17">
    <path data-name="Path 2115" d="M944.695 603.325a12.264 12.264 0 0 1 5.61 0 7.2 7.2 0 0 1 5.37 5.37 12.262 12.262 0 0 1 0 5.61 7.2 7.2 0 0 1-5.37 5.37 12.264 12.264 0 0 1-5.61 0 7.2 7.2 0 0 1-5.37-5.37 12.265 12.265 0 0 1 0-5.61 7.2 7.2 0 0 1 5.37-5.37zm3.347 5.463a.542.542 0 1 0-1.084 0v4.521a.542.542 0 1 0 1.084 0zm-2.712 1.808a.542.542 0 1 0-1.084 0v3.616a.542.542 0 0 0 1.084 0zm5.425.9a.543.543 0 0 0-1.085 0v2.712a.543.543 0 0 0 1.085 0z" transform="translate(-939 -603)" style="fill:#6f7f91;fill-rule:evenodd"/>
</svg>
