<svg xmlns="http://www.w3.org/2000/svg" width="16.757" height="16.756" viewBox="0 0 16.757 16.756">
    <path data-name="Path 1995" d="M733.567 315.175a.65.65 0 0 0 0-.917l-5.335-5.37a15.949 15.949 0 0 0-1.41-1.323 2.127 2.127 0 0 0-2.888 0 15.967 15.967 0 0 0-1.41 1.323l-5.335 5.37a.65.65 0 0 0 0 .917.642.642 0 0 0 .911 0l.369-.371v2.839a6 6 0 0 0 4.6 5.844 10.033 10.033 0 0 0 4.614 0 6 6 0 0 0 4.6-5.844V314.8l.369.371a.642.642 0 0 0 .915.004z" transform="translate(-717 -307)" style="fill:#6f7f91"/>
</svg>
