<svg xmlns="http://www.w3.org/2000/svg" width="22.783" height="22.783">
    <defs>
        <filter id="a">
            <feOffset dy="2"/>
            <feGaussianBlur stdDeviation="2.5" result="blur"/>
            <feFlood flood-opacity=".686" result="color"/>
            <feComposite operator="out" in="SourceGraphic" in2="blur"/>
            <feComposite operator="in" in="color"/>
            <feComposite operator="in" in2="SourceGraphic"/>
        </filter>
    </defs>
    <g data-type="innerShadowGroup">
        <path data-name="Path 2924" d="M132.632 233.435a16.433 16.433 0 0 1 7.518 0 9.652 9.652 0 0 1 7.2 7.2 16.433 16.433 0 0 1 0 7.518 9.652 9.652 0 0 1-7.2 7.2 16.433 16.433 0 0 1-7.518 0 9.652 9.652 0 0 1-7.2-7.2 16.434 16.434 0 0 1 0-7.518 9.652 9.652 0 0 1 7.2-7.2zm5.645 8.44a.485.485 0 0 1 .63.63l-.989 2.469a1.7 1.7 0 0 1-.944.944l-2.469.989a.485.485 0 0 1-.63-.63l.989-2.469a1.7 1.7 0 0 1 .944-.944zm1.98 1.171a1.938 1.938 0 0 0-2.52-2.52l-2.468.987a3.148 3.148 0 0 0-1.756 1.756l-.987 2.468a1.939 1.939 0 0 0 2.52 2.52l2.468-.987a3.148 3.148 0 0 0 1.756-1.756z" transform="translate(-125 -233)" style="fill-rule:evenodd;fill:#3fdede"/>
        <g style="filter:url(#a)">
            <path data-name="Path 2924" d="M132.632 233.435a16.433 16.433 0 0 1 7.518 0 9.652 9.652 0 0 1 7.2 7.2 16.433 16.433 0 0 1 0 7.518 9.652 9.652 0 0 1-7.2 7.2 16.433 16.433 0 0 1-7.518 0 9.652 9.652 0 0 1-7.2-7.2 16.434 16.434 0 0 1 0-7.518 9.652 9.652 0 0 1 7.2-7.2zm5.645 8.44a.485.485 0 0 1 .63.63l-.989 2.469a1.7 1.7 0 0 1-.944.944l-2.469.989a.485.485 0 0 1-.63-.63l.989-2.469a1.7 1.7 0 0 1 .944-.944zm1.98 1.171a1.938 1.938 0 0 0-2.52-2.52l-2.468.987a3.148 3.148 0 0 0-1.756 1.756l-.987 2.468a1.939 1.939 0 0 0 2.52 2.52l2.468-.987a3.148 3.148 0 0 0 1.756-1.756z" transform="translate(-125 -233)" style="fill:#fff;fill-rule:evenodd"/>
        </g>
    </g>
</svg>
