<svg xmlns="http://www.w3.org/2000/svg" width="15.5" height="19.5">
    <defs>
        <style>
            .cls-1{fill:#acb6c3}
        </style>
    </defs>
    <g id="Group_110" data-name="Group 110" transform="translate(-1314.25 -574.25)">
        <path id="Path_3231" data-name="Path 3231" class="cls-1" d="M509.172 399.75h-10.344a2.612 2.612 0 0 1-2.578-2.639 5.763 5.763 0 0 1 1.309-3.664 5.47 5.47 0 0 1 3.324-1.924l.205-.035a17.912 17.912 0 0 1 5.822 0l.211.035a5.469 5.469 0 0 1 3.321 1.924 5.763 5.763 0 0 1 1.309 3.664 2.612 2.612 0 0 1-2.579 2.639zm-5.172-7a16.466 16.466 0 0 0-2.666.218l-.205.035a3.972 3.972 0 0 0-2.413 1.4 4.259 4.259 0 0 0-.965 2.709 1.111 1.111 0 0 0 1.078 1.139h10.344a1.111 1.111 0 0 0 1.078-1.139 4.259 4.259 0 0 0-.965-2.709 3.971 3.971 0 0 0-2.411-1.4l-.211-.035a16.46 16.46 0 0 0-2.664-.218z" transform="translate(818 194)"/>
        <path id="Path_3232" data-name="Path 3232" class="cls-1" d="M504 389.625a4.69 4.69 0 1 1 4.833-4.687 4.767 4.767 0 0 1-4.833 4.687zm0-7.875a3.191 3.191 0 1 0 3.333 3.188A3.267 3.267 0 0 0 504 381.75z" transform="translate(818 194)"/>
    </g>
</svg>
