<svg xmlns="http://www.w3.org/2000/svg" width="17" height="18" viewBox="0 0 17 18">
    <path data-name="Path 2026" d="M730.312 381.431a21.773 21.773 0 0 0-8.624 0 4.879 4.879 0 0 0-3.711 3.531l-.042.154a12.387 12.387 0 0 0 0 6.508l.042.154a4.88 4.88 0 0 0 3.711 3.531 21.852 21.852 0 0 0 3.625.42v1.854h-1.6a.709.709 0 0 0 0 1.417h4.578a.709.709 0 0 0 0-1.417h-1.6v-1.854a21.854 21.854 0 0 0 3.625-.42 4.88 4.88 0 0 0 3.711-3.531l.042-.154a12.387 12.387 0 0 0 0-6.508l-.042-.154a4.879 4.879 0 0 0-3.715-3.531zm-2.265 8.068.023-.021 1.5-1.395a.58.58 0 0 0 .041-.8.536.536 0 0 0-.775-.042l-1.5 1.4c-.147.136-.242.224-.314.282a8.878 8.878 0 0 1-.236-.353l-.656-1.017-.017-.026a4.989 4.989 0 0 0-.363-.516 1 1 0 0 0-.626-.367.976.976 0 0 0-.694.2 4.647 4.647 0 0 0-.476.407l-.023.021-1.5 1.395a.58.58 0 0 0-.041.8.538.538 0 0 0 .775.042l1.5-1.4a6.6 6.6 0 0 1 .314-.282c.055.074.126.183.236.353l.656 1.016.016.026a4.8 4.8 0 0 0 .364.515.992.992 0 0 0 .625.368.976.976 0 0 0 .694-.2 4.8 4.8 0 0 0 .477-.405z" transform="translate(-717.5 -381)" style="fill:#6f7f91;fill-rule:evenodd"/>
</svg>
