<svg xmlns="http://www.w3.org/2000/svg" width="24.43" height="24.429">
    <path data-name="Path 1995" d="M741.154 318.919a.948.948 0 0 0 0-1.337l-7.778-7.83a23.248 23.248 0 0 0-2.056-1.928 3.1 3.1 0 0 0-4.21 0 23.266 23.266 0 0 0-2.056 1.928l-7.778 7.83a.948.948 0 0 0 0 1.337.936.936 0 0 0 1.329 0l.537-.542v4.139a8.74 8.74 0 0 0 6.71 8.52 14.627 14.627 0 0 0 6.726 0 8.74 8.74 0 0 0 6.71-8.52v-4.139l.537.542a.936.936 0 0 0 1.329 0z" transform="translate(-717 -307)" style="fill:#6f7f91"/>
</svg>
