<svg xmlns="http://www.w3.org/2000/svg" width="21.608" height="21.608">
    <path data-name="Path 2115" d="M946.239 603.413a15.588 15.588 0 0 1 7.13 0 9.154 9.154 0 0 1 6.826 6.826 15.585 15.585 0 0 1 0 7.13 9.154 9.154 0 0 1-6.826 6.826 15.588 15.588 0 0 1-7.13 0 9.154 9.154 0 0 1-6.826-6.826 15.588 15.588 0 0 1 0-7.13 9.154 9.154 0 0 1 6.826-6.826zm4.254 6.943a.689.689 0 1 0-1.378 0v5.744a.689.689 0 1 0 1.378 0zm-3.448 2.3a.689.689 0 1 0-1.378 0v4.6a.689.689 0 0 0 1.378 0zm6.9 1.149a.69.69 0 0 0-1.379 0v3.448a.69.69 0 0 0 1.379 0z" transform="translate(-939 -603)" style="fill:#6f7f91;fill-rule:evenodd"/>
</svg>
