<svg xmlns="http://www.w3.org/2000/svg" width="23.337" height="23.337">
    <path data-name="Path 1980" d="M275.178 314.135a9.008 9.008 0 0 1 6.712-6.712 16.013 16.013 0 0 1 7.312 0 9.008 9.008 0 0 1 6.712 6.712 16.014 16.014 0 0 1 0 7.312 9.008 9.008 0 0 1-6.712 6.712 16.013 16.013 0 0 1-7.312 0 8.987 8.987 0 0 1-2.3-.883 3.3 3.3 0 1 1-3.533-3.533 8.985 8.985 0 0 1-.883-2.3 16.012 16.012 0 0 1 .004-7.308zm4.954 1.675a.792.792 0 0 1 .792-.792h3.962a.792.792 0 0 1 0 1.584h-3.962a.791.791 0 0 1-.792-.792zm2.112 3.17a.792.792 0 0 0 0 1.584h6.6a.792.792 0 1 0 0-1.584z" transform="translate(-273 -307)" style="fill:#6f7f91;fill-rule:evenodd"/>
</svg>
