<svg xmlns="http://www.w3.org/2000/svg" width="21.215" height="22.464">
    <path data-name="Path 2026" d="M733.489 381.538a27.172 27.172 0 0 0-10.762 0 6.089 6.089 0 0 0-4.631 4.407l-.052.192a15.458 15.458 0 0 0 0 8.122l.052.192a6.09 6.09 0 0 0 4.631 4.406 27.272 27.272 0 0 0 4.524.524v2.319h-2a.885.885 0 0 0 0 1.768h5.713a.885.885 0 0 0 0-1.768h-2v-2.314a27.273 27.273 0 0 0 4.524-.524 6.09 6.09 0 0 0 4.631-4.406l.052-.192a15.459 15.459 0 0 0 0-8.122l-.052-.192a6.089 6.089 0 0 0-4.63-4.412zm-2.827 10.069.029-.026 1.873-1.741a.723.723 0 0 0 .051-1 .669.669 0 0 0-.967-.052l-1.874 1.741c-.184.17-.3.28-.392.352-.069-.094-.157-.23-.295-.441l-.819-1.269c-.007-.011-.015-.021-.021-.032a6.235 6.235 0 0 0-.453-.644 1.243 1.243 0 0 0-.781-.458 1.218 1.218 0 0 0-.866.245 5.809 5.809 0 0 0-.594.508l-.029.026-1.873 1.741a.723.723 0 0 0-.051 1 .671.671 0 0 0 .967.052l1.874-1.741c.184-.171.3-.28.392-.352.069.092.157.228.295.441l.819 1.268.02.032a5.994 5.994 0 0 0 .454.643 1.238 1.238 0 0 0 .78.459 1.218 1.218 0 0 0 .866-.245 6 6 0 0 0 .595-.508z" transform="translate(-717.5 -381)" style="fill:#6f7f91;fill-rule:evenodd"/>
</svg>
