<svg xmlns="http://www.w3.org/2000/svg" width="17.5" height="19.5">
    <defs>
        <style>
            .cls-1{fill:#acb6c3}
        </style>
    </defs>
    <g id="Group_109" data-name="Group 109" transform="translate(-1373.25 -598.25)">
        <path id="Path_3259" data-name="Path 3259" class="cls-1" d="m126.653 469.026-.695.283zm-.347-5.629.724.2zm15.388 0-.724.2zm-.347 5.629.7.283zm-5.311 3.816-.115-.741zm-4.072 0 .115-.741zm-1.308-13.24-.149-.735zm6.688 0 .149-.735zm-6.129 13.123-.116.741zm-4.469-3.47.695-.283zm10.039 3.47.116.741zm4.469-3.47-.695-.283zm-3.634-9.6-.15.735zm-7.24 0 .15.735zm-1.486-.227a.75.75 0 0 0 1.5 0zm.75-.3zm8.712 0zm-.75.3a.75.75 0 0 0 1.5 0zm-4.754-4.29-.182-.727zm2.3 0 .182-.727zm-4.618 5.252.276-.056-.3-1.47-.276.056zm6.664-.056.276.056.3-1.47-.276-.056zm-.525 11.647-.748.117.231 1.482.749-.117zm-4.59.117-.748-.117-.232 1.482.749.117zm8.573-3.357-.093.228 1.39.565.093-.228zm-13.211.228-.093-.228-1.39.565.093.228zm-.093-.228a8.057 8.057 0 0 1-.318-5.151l-1.448-.392a9.565 9.565 0 0 0 .376 6.108zm13.622-5.151a8.057 8.057 0 0 1-.318 5.151l1.39.565a9.565 9.565 0 0 0 .376-6.108zm-5.049 8.508a12.439 12.439 0 0 1-3.842 0l-.231 1.482a13.929 13.929 0 0 0 4.3 0zm-5.115-11.764a16.051 16.051 0 0 1 6.388 0l.3-1.47a17.555 17.555 0 0 0-6.986 0zm.525 11.647a5.006 5.006 0 0 1-3.89-3.012l-1.39.565a6.507 6.507 0 0 0 5.048 3.929zm5.57 1.482a6.507 6.507 0 0 0 5.048-3.929l-1.39-.565a5.006 5.006 0 0 1-3.89 3.012zm.569-13.073a4.518 4.518 0 0 1 3.5 3.2l1.448-.392a6.019 6.019 0 0 0-4.649-4.278zm-7.239-1.47a6.019 6.019 0 0 0-4.649 4.278l1.448.392a4.518 4.518 0 0 1 3.5-3.2zm.163.508v-.3h-1.5v.3zm7.212-.3v.3h1.5v-.3zm-4.572-3.259a3.972 3.972 0 0 1 1.932 0l.364-1.455a5.467 5.467 0 0 0-2.66 0zm6.072 3.259a4.9 4.9 0 0 0-3.776-4.714l-.364 1.455a3.4 3.4 0 0 1 2.64 3.259zm-8.712 0a3.4 3.4 0 0 1 2.64-3.259l-.364-1.455a4.9 4.9 0 0 0-3.776 4.714z" transform="translate(1248 144)"/>
        <path id="Path_3260" data-name="Path 3260" class="cls-1" d="M134 468.25a.75.75 0 0 1-.75-.75v-2a.75.75 0 0 1 1.5 0v2a.75.75 0 0 1-.75.75z" transform="translate(1248 144)"/>
    </g>
</svg>
