<svg xmlns="http://www.w3.org/2000/svg" width="21.993" height="22">
    <defs>
        <filter id="a">
            <feOffset dy="2"/>
            <feGaussianBlur stdDeviation="2.5" result="blur"/>
            <feFlood flood-opacity=".686" result="color"/>
            <feComposite operator="out" in="SourceGraphic" in2="blur"/>
            <feComposite operator="in" in="color"/>
            <feComposite operator="in" in2="SourceGraphic"/>
        </filter>
    </defs>
    <g data-type="innerShadowGroup">
        <path data-name="Video" d="M1464.369 603.421a15.867 15.867 0 0 1 7.26 0 9.346 9.346 0 0 1 6.954 6.949 16.179 16.179 0 0 1 0 7.26 9.346 9.346 0 0 1-6.954 6.949 15.867 15.867 0 0 1-7.26 0 9.346 9.346 0 0 1-6.954-6.949 16.179 16.179 0 0 1 0-7.26 9.346 9.346 0 0 1 6.954-6.949zm1.735 8.6a.819.819 0 0 1 .342-.7.515.515 0 0 1 .587 0l3.1 1.981a.9.9 0 0 1 0 1.408l-3.1 1.981a.515.515 0 0 1-.587 0 .819.819 0 0 1-.342-.7zm1.723-1.938a1.977 1.977 0 0 0-2.163 0 2.261 2.261 0 0 0-1.027 1.938v3.965a2.261 2.261 0 0 0 1.027 1.938 1.977 1.977 0 0 0 2.163 0l3.092-1.982a2.343 2.343 0 0 0 0-3.877z" transform="translate(-1457.003 -603)" style="fill-rule:evenodd;fill:#ff607f"/>
        <g style="filter:url(#a)">
            <path data-name="Video" d="M1464.369 603.421a15.867 15.867 0 0 1 7.26 0 9.346 9.346 0 0 1 6.954 6.949 16.179 16.179 0 0 1 0 7.26 9.346 9.346 0 0 1-6.954 6.949 15.867 15.867 0 0 1-7.26 0 9.346 9.346 0 0 1-6.954-6.949 16.179 16.179 0 0 1 0-7.26 9.346 9.346 0 0 1 6.954-6.949zm1.735 8.6a.819.819 0 0 1 .342-.7.515.515 0 0 1 .587 0l3.1 1.981a.9.9 0 0 1 0 1.408l-3.1 1.981a.515.515 0 0 1-.587 0 .819.819 0 0 1-.342-.7zm1.723-1.938a1.977 1.977 0 0 0-2.163 0 2.261 2.261 0 0 0-1.027 1.938v3.965a2.261 2.261 0 0 0 1.027 1.938 1.977 1.977 0 0 0 2.163 0l3.092-1.982a2.343 2.343 0 0 0 0-3.877z" transform="translate(-1457 -603)" style="fill:#fff;fill-rule:evenodd"/>
        </g>
    </g>
</svg>
