<svg xmlns="http://www.w3.org/2000/svg" width="22.803" height="21.603">
    <defs>
        <filter id="a">
            <feOffset dy="2"/>
            <feGaussianBlur stdDeviation="2.5" result="blur"/>
            <feFlood flood-opacity=".686" result="color"/>
            <feComposite operator="out" in="SourceGraphic" in2="blur"/>
            <feComposite operator="in" in="color"/>
            <feComposite operator="in" in2="SourceGraphic"/>
        </filter>
    </defs>
    <g data-type="innerShadowGroup">
        <path data-name="Wallet" d="M213.539 233.4a16.9 16.9 0 0 0-7.275 0l-.5.11a9.01 9.01 0 0 0-6.811 6.612 15.208 15.208 0 0 0 0 7.366 9.01 9.01 0 0 0 6.811 6.612l.5.11a16.9 16.9 0 0 0 7.275 0l.5-.11a9.01 9.01 0 0 0 6.811-6.612 15.208 15.208 0 0 0 0-7.366 9.01 9.01 0 0 0-6.811-6.612zm3.495 7.775a6.361 6.361 0 0 1 1.366-.083 1.028 1.028 0 0 1 .959.906 13.4 13.4 0 0 1 0 3.615 1.028 1.028 0 0 1-.959.906 6.361 6.361 0 0 1-1.366-.083l-.089-.014a2.982 2.982 0 0 1-2.4-2 2.1 2.1 0 0 1 0-1.239 2.982 2.982 0 0 1 2.4-2zm-12.718-1a.726.726 0 0 1 .728-.725h4.856a.725.725 0 1 1 0 1.451h-4.857a.727.727 0 0 1-.727-.728z" transform="translate(-198.5 -233)" style="fill-rule:evenodd;fill:#60edff"/>
        <g style="filter:url(#a)">
            <path data-name="Wallet" d="M213.539 233.4a16.9 16.9 0 0 0-7.275 0l-.5.11a9.01 9.01 0 0 0-6.811 6.612 15.208 15.208 0 0 0 0 7.366 9.01 9.01 0 0 0 6.811 6.612l.5.11a16.9 16.9 0 0 0 7.275 0l.5-.11a9.01 9.01 0 0 0 6.811-6.612 15.208 15.208 0 0 0 0-7.366 9.01 9.01 0 0 0-6.811-6.612zm3.495 7.775a6.361 6.361 0 0 1 1.366-.083 1.028 1.028 0 0 1 .959.906 13.4 13.4 0 0 1 0 3.615 1.028 1.028 0 0 1-.959.906 6.361 6.361 0 0 1-1.366-.083l-.089-.014a2.982 2.982 0 0 1-2.4-2 2.1 2.1 0 0 1 0-1.239 2.982 2.982 0 0 1 2.4-2zm-12.718-1a.726.726 0 0 1 .728-.725h4.856a.725.725 0 1 1 0 1.451h-4.857a.727.727 0 0 1-.727-.728z" transform="translate(-198.5 -233)" style="fill:#fff;fill-rule:evenodd"/>
        </g>
    </g>
</svg>
