<svg xmlns="http://www.w3.org/2000/svg" width="24.245" height="24.253">
    <path data-name="Path 2122" d="M1465.124 603.464a17.5 17.5 0 0 1 8 0 10.3 10.3 0 0 1 7.666 7.661 17.833 17.833 0 0 1 0 8 10.3 10.3 0 0 1-7.666 7.661 17.492 17.492 0 0 1-8 0 10.3 10.3 0 0 1-7.666-7.661 17.837 17.837 0 0 1 0-8 10.3 10.3 0 0 1 7.666-7.661zm1.913 9.477a.9.9 0 0 1 .377-.775.568.568 0 0 1 .647 0l3.422 2.184a.987.987 0 0 1 0 1.552l-3.422 2.184a.568.568 0 0 1-.647 0 .9.9 0 0 1-.377-.775zm1.9-2.137a2.18 2.18 0 0 0-2.385 0 2.492 2.492 0 0 0-1.132 2.137v4.371a2.492 2.492 0 0 0 1.132 2.137 2.18 2.18 0 0 0 2.385 0l3.409-2.185a2.583 2.583 0 0 0 0-4.274z" transform="translate(-1457.002 -603)" style="fill:#608fbf;fill-rule:evenodd"/>
</svg>
