<svg xmlns="http://www.w3.org/2000/svg" width="17.136" height="17.137" viewBox="0 0 17.136 17.137">
    <g data-name="Group 213">
        <path data-name="Path 3663" d="M3.328 8.741a12.382 12.382 0 0 0 0 5.655 7.264 7.264 0 0 0 5.413 5.414 12.361 12.361 0 0 0 5.655 0 7.264 7.264 0 0 0 5.414-5.41 12.381 12.381 0 0 0 0-5.655 7.264 7.264 0 0 0-5.41-5.417 12.383 12.383 0 0 0-5.655 0 7.264 7.264 0 0 0-5.417 5.413zm8.97 5.881a.684.684 0 1 1-.684-.684.684.684 0 0 1 .684.684zm-2.005-4.967a1.276 1.276 0 0 1 2.552 0v.11a1.387 1.387 0 0 1-.406.981L11.182 12a.547.547 0 0 0 .773.773l1.257-1.257a2.48 2.48 0 0 0 .726-1.754v-.11a2.37 2.37 0 0 0-4.739 0v.455a.547.547 0 1 0 1.094 0z" transform="translate(-3 -3)" style="fill:#bec7d0;fill-rule:evenodd"/>
    </g>
</svg>
