<svg xmlns="http://www.w3.org/2000/svg" width="18" height="18" viewBox="0 0 18 18">
    <g data-name="Group 225">
        <path data-name="Path 3675" d="M12 3a5.262 5.262 0 0 0-1.829.326 4.907 4.907 0 0 0-1.568.94A4.419 4.419 0 0 0 7.535 5.7a4.049 4.049 0 0 0-.32 1.021H3.692a.7.7 0 0 0 0 1.395h1.154v4.047a16.186 16.186 0 0 0 .635 4.489 5.887 5.887 0 0 0 4.668 4.181l.145.025a10.283 10.283 0 0 0 3.412 0l.145-.025a5.887 5.887 0 0 0 4.668-4.181 16.191 16.191 0 0 0 .635-4.489V8.115h1.154a.7.7 0 0 0 0-1.395h-3.523a4.13 4.13 0 0 0-.32-1.02A4.42 4.42 0 0 0 15.4 4.266a4.908 4.908 0 0 0-1.568-.94A5.265 5.265 0 0 0 12 3zm-1.35 1.635a3.917 3.917 0 0 1 2.7 0 3.513 3.513 0 0 1 1.127.673 3.026 3.026 0 0 1 .733.98 2.8 2.8 0 0 1 .158.432H8.632a2.793 2.793 0 0 1 .158-.431 3 3 0 0 1 .733-.98 3.5 3.5 0 0 1 1.127-.674zm-.5 6.735a.7.7 0 0 1 .692.7v3.72a.692.692 0 1 1-1.384 0v-3.72a.7.7 0 0 1 .692-.7zm3.692 0a.7.7 0 0 1 .693.7v3.72a.693.693 0 1 1-1.385 0v-3.72a.7.7 0 0 1 .692-.7z" style="fill:#cad7e6;fill-rule:evenodd" transform="translate(-3 -3)"/>
    </g>
</svg>
