<svg xmlns="http://www.w3.org/2000/svg" width="21.608" height="21.603">
    <defs>
        <filter id="a">
            <feOffset dy="2"/>
            <feGaussianBlur stdDeviation="2.5" result="blur"/>
            <feFlood flood-opacity=".686" result="color"/>
            <feComposite operator="out" in="SourceGraphic" in2="blur"/>
            <feComposite operator="in" in="color"/>
            <feComposite operator="in" in2="SourceGraphic"/>
        </filter>
    </defs>
    <g data-type="innerShadowGroup">
        <path data-name="Path 2428" d="M1094.141 603.424a9.01 9.01 0 0 0-6.721 6.717 16.046 16.046 0 0 0 0 7.321 9.01 9.01 0 0 0 6.721 6.717 16.015 16.015 0 0 0 7.321 0 9.01 9.01 0 0 0 6.721-6.717 16.046 16.046 0 0 0 0-7.321 9.01 9.01 0 0 0-6.721-6.717 16.015 16.015 0 0 0-7.321 0zm1.836 10.027c.2-.18.336-.3.432-.372l1.236 1.845a6.184 6.184 0 0 0 .5.68 1.348 1.348 0 0 0 .852.486 1.385 1.385 0 0 0 .948-.259 7.225 7.225 0 0 0 .648-.538l2.076-1.871a.751.751 0 0 0-1.008-1.114l-2.04 1.843c-.2.18-.336.3-.432.372-.072-.1-.168-.242-.324-.467l-.912-1.378a6.19 6.19 0 0 0-.5-.68 1.348 1.348 0 0 0-.852-.486 1.385 1.385 0 0 0-.948.259 7.225 7.225 0 0 0-.648.538l-2.076 1.871a.751.751 0 0 0 1.008 1.114zm.432-.372 1.212 1.81-.888-1.343c-.156-.225-.252-.369-.324-.467z" transform="translate(-1086.997 -603)" style="fill-rule:evenodd;fill:#ff609d"/>
        <g style="filter:url(#a)">
            <path data-name="Path 2428" d="M1094.141 603.424a9.01 9.01 0 0 0-6.721 6.717 16.046 16.046 0 0 0 0 7.321 9.01 9.01 0 0 0 6.721 6.717 16.015 16.015 0 0 0 7.321 0 9.01 9.01 0 0 0 6.721-6.717 16.046 16.046 0 0 0 0-7.321 9.01 9.01 0 0 0-6.721-6.717 16.015 16.015 0 0 0-7.321 0zm1.836 10.027c.2-.18.336-.3.432-.372l1.236 1.845a6.184 6.184 0 0 0 .5.68 1.348 1.348 0 0 0 .852.486 1.385 1.385 0 0 0 .948-.259 7.225 7.225 0 0 0 .648-.538l2.076-1.871a.751.751 0 0 0-1.008-1.114l-2.04 1.843c-.2.18-.336.3-.432.372-.072-.1-.168-.242-.324-.467l-.912-1.378a6.19 6.19 0 0 0-.5-.68 1.348 1.348 0 0 0-.852-.486 1.385 1.385 0 0 0-.948.259 7.225 7.225 0 0 0-.648.538l-2.076 1.871a.751.751 0 0 0 1.008 1.114zm.432-.372 1.212 1.81-.888-1.343c-.156-.225-.252-.369-.324-.467z" transform="translate(-1087 -603)" style="fill:#fff;fill-rule:evenodd"/>
        </g>
    </g>
</svg>
