<svg xmlns="http://www.w3.org/2000/svg" width="17" height="17" viewBox="0 0 17 17">
    <path data-name="Path 2113" d="M797.8 618.3a1.7 1.7 0 1 0 3.4 0v-1.1a5.952 5.952 0 0 0 1.131-.468l.775.775a1.7 1.7 0 0 0 2.4-2.4l-.776-.775a5.95 5.95 0 0 0 .468-1.131h1.1a1.7 1.7 0 1 0 0-3.4h-1.1a5.948 5.948 0 0 0-.468-1.13l.776-.775a1.7 1.7 0 0 0-2.4-2.4l-.775.775a5.952 5.952 0 0 0-1.131-.468v-1.1a1.7 1.7 0 0 0-3.4 0v1.1a5.953 5.953 0 0 0-1.13.468l-.775-.775a1.7 1.7 0 0 0-2.4 2.4l.775.775a5.948 5.948 0 0 0-.468 1.13h-1.1a1.7 1.7 0 0 0 0 3.4h1.1a5.95 5.95 0 0 0 .468 1.131l-.775.775a1.7 1.7 0 0 0 2.4 2.4l.775-.775a5.953 5.953 0 0 0 1.13.468zm1.7-4.25a2.55 2.55 0 1 0-2.55-2.55 2.55 2.55 0 0 0 2.55 2.55z" transform="translate(-791 -603)" style="fill:#6f7f91;fill-rule:evenodd"/>
</svg>
