<svg xmlns="http://www.w3.org/2000/svg" width="21.215" height="21.215">
    <path data-name="Path 2113" d="M799.486 622.094a2.122 2.122 0 1 0 4.243 0v-1.368a7.422 7.422 0 0 0 1.411-.585l.968.968a2.122 2.122 0 0 0 3-3l-.968-.968a7.424 7.424 0 0 0 .585-1.411h1.368a2.122 2.122 0 1 0 0-4.243h-1.368a7.424 7.424 0 0 0-.585-1.411l.968-.968a2.122 2.122 0 0 0-3-3l-.968.968a7.427 7.427 0 0 0-1.411-.585v-1.368a2.122 2.122 0 1 0-4.243 0v1.368a7.429 7.429 0 0 0-1.411.585l-.968-.968a2.122 2.122 0 0 0-3 3l.968.968a7.424 7.424 0 0 0-.585 1.411h-1.368a2.122 2.122 0 0 0 0 4.243h1.368a7.424 7.424 0 0 0 .585 1.411l-.968.968a2.122 2.122 0 0 0 3 3l.968-.968a7.425 7.425 0 0 0 1.411.585zm2.122-5.3a3.182 3.182 0 1 0-3.182-3.182 3.183 3.183 0 0 0 3.182 3.178z" transform="translate(-791 -603)" style="fill:#6f7f91;fill-rule:evenodd"/>
</svg>
