<svg xmlns="http://www.w3.org/2000/svg" width="23.571" height="22.406" viewBox="0 0 23.571 22.406">
    <defs>
        <filter id="9ews0d7e0a">
            <feOffset dy="2"/>
            <feGaussianBlur stdDeviation="2.5" result="blur"/>
            <feFlood flood-opacity=".686" result="color"/>
            <feComposite operator="out" in="SourceGraphic" in2="blur"/>
            <feComposite operator="in" in="color"/>
            <feComposite operator="in" in2="SourceGraphic"/>
        </filter>
    </defs>
    <g data-type="innerShadowGroup">
        <path data-name="Subtraction 2" d="M-3426.327-1723.995a1 1 0 0 1 1.808 0l2.77 5.862a1 1 0 0 0 .78.565l6.454.807a1 1 0 0 1 .558 1.724l-4.737 4.417a1 1 0 0 0-.3.92l1.222 6.347a1 1 0 0 1-1.462 1.066l-5.709-3.125a1 1 0 0 0-.96 0l-5.709 3.125a1 1 0 0 1-1.462-1.066l1.222-6.347a1 1 0 0 0-.3-.92l-4.737-4.417a1 1 0 0 1 .558-1.724l6.454-.807a1 1 0 0 0 .78-.565z" transform="translate(3437.208 1724.568)" style="fill:#dec03f"/>
        <g style="filter:url(#9ews0d7e0a)">
            <path data-name="Subtraction 2" d="M-3426.327-1723.995a1 1 0 0 1 1.808 0l2.77 5.862a1 1 0 0 0 .78.565l6.454.807a1 1 0 0 1 .558 1.724l-4.737 4.417a1 1 0 0 0-.3.92l1.222 6.347a1 1 0 0 1-1.462 1.066l-5.709-3.125a1 1 0 0 0-.96 0l-5.709 3.125a1 1 0 0 1-1.462-1.066l1.222-6.347a1 1 0 0 0-.3-.92l-4.737-4.417a1 1 0 0 1 .558-1.724l6.454-.807a1 1 0 0 0 .78-.565z" transform="translate(3437.21 1724.57)" style="fill:#fff"/>
        </g>
    </g>
</svg>
