<svg xmlns="http://www.w3.org/2000/svg" width="11.192" height="13.518">
    <defs>
        <filter id="a">
            <feOffset dy="2"/>
            <feGaussianBlur stdDeviation="2.5" result="blur"/>
            <feFlood flood-opacity=".686" result="color"/>
            <feComposite operator="out" in="SourceGraphic" in2="blur"/>
            <feComposite operator="in" in="color"/>
            <feComposite operator="in" in2="SourceGraphic"/>
        </filter>
    </defs>
    <g data-type="innerShadowGroup" data-name="Group 39">
        <path data-name="Union 5" d="m-3943.146-2088.285-.376-.406a.53.53 0 0 0-.383-.171h-.512a5.4 5.4 0 0 1-1.894-.343 3.519 3.519 0 0 1-2.207-2.816l-.008-.035a6.8 6.8 0 0 1 0-1.973l.008-.036a3.522 3.522 0 0 1 2.207-2.816 5.426 5.426 0 0 1 1.894-.342h.512a.53.53 0 0 0 .383-.171l.376-.406a2.569 2.569 0 0 1 4.421 1.315 15.644 15.644 0 0 1 0 6.886 2.655 2.655 0 0 1-2.563 2.153 2.506 2.506 0 0 1-1.858-.839zm6.115-2.631a.682.682 0 0 1 .167-.916 1.491 1.491 0 0 0 .552-1.211 1.488 1.488 0 0 0-.552-1.211.683.683 0 0 1-.167-.917.591.591 0 0 1 .855-.182 2.821 2.821 0 0 1 1.095 2.31 2.82 2.82 0 0 1-1.095 2.309.6.6 0 0 1-.345.111.6.6 0 0 1-.51-.293z" transform="rotate(-90 -918.22 -3016.86)" style="fill:#c4deff"/>
        <g style="filter:url(#a)">
            <path data-name="Union 5" d="m-3943.146-2088.285-.376-.406a.53.53 0 0 0-.383-.171h-.512a5.4 5.4 0 0 1-1.894-.343 3.519 3.519 0 0 1-2.207-2.816l-.008-.035a6.8 6.8 0 0 1 0-1.973l.008-.036a3.522 3.522 0 0 1 2.207-2.816 5.426 5.426 0 0 1 1.894-.342h.512a.53.53 0 0 0 .383-.171l.376-.406a2.569 2.569 0 0 1 4.421 1.315 15.644 15.644 0 0 1 0 6.886 2.655 2.655 0 0 1-2.563 2.153 2.506 2.506 0 0 1-1.858-.839zm6.115-2.631a.682.682 0 0 1 .167-.916 1.491 1.491 0 0 0 .552-1.211 1.488 1.488 0 0 0-.552-1.211.683.683 0 0 1-.167-.917.591.591 0 0 1 .855-.182 2.821 2.821 0 0 1 1.095 2.31 2.82 2.82 0 0 1-1.095 2.309.6.6 0 0 1-.345.111.6.6 0 0 1-.51-.293z" transform="rotate(-90 -918.221 -3016.861)" style="fill:#fff"/>
        </g>
    </g>
</svg>
