<svg xmlns="http://www.w3.org/2000/svg" width="23.699" height="23.693">
    <defs>
        <filter id="a">
            <feOffset dy="2"/>
            <feGaussianBlur stdDeviation="2.5" result="blur"/>
            <feFlood flood-opacity=".686" result="color"/>
            <feComposite operator="out" in="SourceGraphic" in2="blur"/>
            <feComposite operator="in" in="color"/>
            <feComposite operator="in" in2="SourceGraphic"/>
        </filter>
    </defs>
    <g data-type="innerShadowGroup">
        <path data-name="Path 3157" d="M1094.832 603.465a9.882 9.882 0 0 0-7.371 7.367 17.6 17.6 0 0 0 0 8.029 9.882 9.882 0 0 0 7.371 7.367 17.563 17.563 0 0 0 8.029 0 9.882 9.882 0 0 0 7.371-7.367 17.6 17.6 0 0 0 0-8.029 9.882 9.882 0 0 0-7.371-7.367 17.564 17.564 0 0 0-8.029 0zm2.014 11c.224-.2.369-.324.474-.408l1.356 2.023a6.765 6.765 0 0 0 .553.746 1.477 1.477 0 0 0 .934.533 1.519 1.519 0 0 0 1.04-.284 7.932 7.932 0 0 0 .711-.59l2.277-2.052a.824.824 0 0 0-1.106-1.222l-2.238 2.022c-.224.2-.369.324-.474.408-.079-.108-.184-.266-.355-.512l-1-1.511a6.792 6.792 0 0 0-.553-.746 1.479 1.479 0 0 0-.935-.533 1.519 1.519 0 0 0-1.04.284 7.922 7.922 0 0 0-.711.59l-2.277 2.052a.824.824 0 0 0 1.106 1.221zm.474-.408 1.329 1.985-.974-1.473c-.175-.249-.275-.407-.355-.515z" transform="translate(-1086.997 -603)" style="fill-rule:evenodd;fill:#9760ff"/>
        <g style="filter:url(#a)">
            <path data-name="Path 3157" d="M1094.832 603.465a9.882 9.882 0 0 0-7.371 7.367 17.6 17.6 0 0 0 0 8.029 9.882 9.882 0 0 0 7.371 7.367 17.563 17.563 0 0 0 8.029 0 9.882 9.882 0 0 0 7.371-7.367 17.6 17.6 0 0 0 0-8.029 9.882 9.882 0 0 0-7.371-7.367 17.564 17.564 0 0 0-8.029 0zm2.014 11c.224-.2.369-.324.474-.408l1.356 2.023a6.765 6.765 0 0 0 .553.746 1.477 1.477 0 0 0 .934.533 1.519 1.519 0 0 0 1.04-.284 7.932 7.932 0 0 0 .711-.59l2.277-2.052a.824.824 0 0 0-1.106-1.222l-2.238 2.022c-.224.2-.369.324-.474.408-.079-.108-.184-.266-.355-.512l-1-1.511a6.792 6.792 0 0 0-.553-.746 1.479 1.479 0 0 0-.935-.533 1.519 1.519 0 0 0-1.04.284 7.922 7.922 0 0 0-.711.59l-2.277 2.052a.824.824 0 0 0 1.106 1.221zm.474-.408 1.329 1.985-.974-1.473c-.175-.249-.275-.407-.355-.515z" transform="translate(-1087 -603)" style="fill:#fff;fill-rule:evenodd"/>
        </g>
    </g>
</svg>
