<svg xmlns="http://www.w3.org/2000/svg" width="11.192" height="15.988">
    <defs>
        <filter id="a">
            <feOffset dy="2"/>
            <feGaussianBlur stdDeviation="2.5" result="blur"/>
            <feFlood flood-opacity=".686" result="color"/>
            <feComposite operator="out" in="SourceGraphic" in2="blur"/>
            <feComposite operator="in" in="color"/>
            <feComposite operator="in" in2="SourceGraphic"/>
        </filter>
    </defs>
    <g data-type="innerShadowGroup" data-name="Group 41">
        <path data-name="Union 6" d="m-4164.56-2088.286-.375-.406a.529.529 0 0 0-.384-.171h-.512a5.4 5.4 0 0 1-1.894-.343 3.52 3.52 0 0 1-2.207-2.816l-.007-.036a6.745 6.745 0 0 1 0-1.973l.007-.036a3.522 3.522 0 0 1 2.207-2.816 5.424 5.424 0 0 1 1.894-.342h.512a.53.53 0 0 0 .384-.172l.375-.406a2.57 2.57 0 0 1 4.422 1.315 15.637 15.637 0 0 1 0 6.886 2.655 2.655 0 0 1-2.563 2.152 2.508 2.508 0 0 1-1.859-.836zm7.795.066a.7.7 0 0 1 .08-.93 5.288 5.288 0 0 0 1.432-3.893 5.288 5.288 0 0 0-1.432-3.894.7.7 0 0 1-.08-.93.594.594 0 0 1 .872-.084 6.642 6.642 0 0 1 1.87 4.908 6.639 6.639 0 0 1-1.87 4.907.579.579 0 0 1-.392.153.615.615 0 0 1-.48-.237zm-1.679-2.7a.682.682 0 0 1 .167-.916 1.492 1.492 0 0 0 .551-1.211 1.488 1.488 0 0 0-.551-1.211.683.683 0 0 1-.167-.917.591.591 0 0 1 .855-.182 2.819 2.819 0 0 1 1.1 2.31 2.821 2.821 0 0 1-1.1 2.31.6.6 0 0 1-.345.111.6.6 0 0 1-.51-.291z" transform="rotate(-90 -1027.692 -3126.331)" style="fill:#c4deff"/>
        <g style="filter:url(#a)">
            <path data-name="Union 6" d="m-4164.56-2088.286-.375-.406a.529.529 0 0 0-.384-.171h-.512a5.4 5.4 0 0 1-1.894-.343 3.52 3.52 0 0 1-2.207-2.816l-.007-.036a6.745 6.745 0 0 1 0-1.973l.007-.036a3.522 3.522 0 0 1 2.207-2.816 5.424 5.424 0 0 1 1.894-.342h.512a.53.53 0 0 0 .384-.172l.375-.406a2.57 2.57 0 0 1 4.422 1.315 15.637 15.637 0 0 1 0 6.886 2.655 2.655 0 0 1-2.563 2.152 2.508 2.508 0 0 1-1.859-.836zm7.795.066a.7.7 0 0 1 .08-.93 5.288 5.288 0 0 0 1.432-3.893 5.288 5.288 0 0 0-1.432-3.894.7.7 0 0 1-.08-.93.594.594 0 0 1 .872-.084 6.642 6.642 0 0 1 1.87 4.908 6.639 6.639 0 0 1-1.87 4.907.579.579 0 0 1-.392.153.615.615 0 0 1-.48-.237zm-1.679-2.7a.682.682 0 0 1 .167-.916 1.492 1.492 0 0 0 .551-1.211 1.488 1.488 0 0 0-.551-1.211.683.683 0 0 1-.167-.917.591.591 0 0 1 .855-.182 2.819 2.819 0 0 1 1.1 2.31 2.821 2.821 0 0 1-1.1 2.31.6.6 0 0 1-.345.111.6.6 0 0 1-.51-.291z" transform="rotate(-90 -1027.691 -3126.331)" style="fill:#fff"/>
        </g>
    </g>
</svg>
