<svg xmlns="http://www.w3.org/2000/svg" width="20.5" height="19.5">
    <defs>
        <style>
            .cls-1{fill:#acb6c3}
        </style>
    </defs>
    <g id="Group_120" data-name="Group 120" transform="translate(-1386.75 -536.625)">
        <path id="Path_3164" data-name="Path 3164" class="cls-1" d="M208 239.75h-4a.75.75 0 0 1 0-1.5h4a.75.75 0 0 1 0 1.5z" transform="translate(1189 304.375)"/>
        <path id="Path_3165" data-name="Path 3165" class="cls-1" d="m198.885 245.151.728-.18zm0-6.3.728.18zm18.23 0 .728-.181zm0 6.3-.728-.18zm-6 5.508-.163-.732zm-6.232 0 .163-.732zm0-17.318.163.732zm6.232 0 .162-.732zm-6.685 17.217-.163.733zm7.138 0 .163.733zm0-17.116-.162.732zm-7.138 0-.163-.733zm10.263 11.058-.134.737zm-.058-.011.134-.738zm0-4.986.134.738zm.058-.011-.134-.737zm2.307.991a.75.75 0 1 0 .6-1.374zm.6 4.4a.75.75 0 1 0-.6-1.374zm-5.023-2.259-.721.206zm0-1.256.721.206zm-7.985-7.2.454-.1-.325-1.464-.454.1zm6.36-.1.454.1.325-1.465-.454-.1zm.454 15.753-.454.1.325 1.464.454-.1zm-6.36.1-.454-.1-.325 1.465.454.1zm-5.434-4.956a12.339 12.339 0 0 1 0-5.942l-1.456-.361a13.834 13.834 0 0 0 0 6.664zm16.774-5.942a12.339 12.339 0 0 1 0 5.942l1.456.361a13.834 13.834 0 0 0 0-6.664zm-5.434 10.9a13.65 13.65 0 0 1-5.906 0l-.325 1.464a15.135 15.135 0 0 0 6.556 0zm-5.906-15.854a13.65 13.65 0 0 1 5.906 0l.325-1.464a15.135 15.135 0 0 0-6.556 0zm-.454 15.753a6.6 6.6 0 0 1-4.98-4.855l-1.456.361a8.107 8.107 0 0 0 6.111 5.959zm7.139 1.465a8.107 8.107 0 0 0 6.111-5.959l-1.456-.361a6.6 6.6 0 0 1-4.98 4.855zm-.325-17.117a6.6 6.6 0 0 1 4.98 4.855l1.456-.361a8.107 8.107 0 0 0-6.111-5.959zm-7.139-1.465a8.107 8.107 0 0 0-6.111 5.959l1.456.361a6.6 6.6 0 0 1 4.98-4.855zm10.56 11.057-.059-.011-.269 1.476.059.01zm-.059-3.521.059-.011-.269-1.475-.059.01zm.059-.011a3.755 3.755 0 0 1 2.172.253l.6-1.374a5.238 5.238 0 0 0-3.042-.354zm-.269 5.007a5.238 5.238 0 0 0 3.042-.354l-.6-1.374a3.755 3.755 0 0 1-2.172.253zm-1.26-2.819a1.533 1.533 0 0 1 0-.844l-1.442-.412a3.031 3.031 0 0 0 0 1.668zm1.2-3.653a3.38 3.38 0 0 0-2.643 2.4l1.442.412a1.881 1.881 0 0 1 1.47-1.333zm.269 4.986a1.881 1.881 0 0 1-1.47-1.333l-1.442.412a3.38 3.38 0 0 0 2.643 2.4z" transform="translate(1189 304.375)"/>
    </g>
</svg>
